<svg width="112" height="120" viewBox="0 0 112 120" fill="none" xmlns="http://www.w3.org/2000/svg">
<rect x="11" y="12" width="42" height="46" rx="4" stroke="black" stroke-width="2"/>
<rect x="26" y="23" width="12" height="6" rx="3" stroke="black" stroke-width="2"/>
<rect x="11" y="12" width="42" height="7" rx="3.5" stroke="black" stroke-width="2"/>
<rect x="59" y="12" width="42" height="46" rx="4" stroke="black" stroke-width="2"/>
<rect x="74" y="23" width="12" height="6" rx="3" stroke="black" stroke-width="2"/>
<rect x="59" y="12" width="42" height="7" rx="3.5" stroke="black" stroke-width="2"/>
<rect x="11" y="61" width="42" height="46" rx="4" stroke="black" stroke-width="2"/>
<rect x="26" y="72" width="12" height="6" rx="3" stroke="black" stroke-width="2"/>
<rect x="11" y="61" width="42" height="7" rx="3.5" stroke="black" stroke-width="2"/>
<rect x="59" y="61" width="42" height="46" rx="4" stroke="black" stroke-width="2"/>
<rect x="74" y="72" width="12" height="6" rx="3" stroke="black" stroke-width="2"/>
<rect x="59" y="61" width="42" height="7" rx="3.5" stroke="black" stroke-width="2"/>
</svg>
