<svg width="112" height="120" viewBox="0 0 112 120" fill="none" xmlns="http://www.w3.org/2000/svg">
<rect x="39" y="48" width="12" height="6" rx="3" stroke="black" stroke-width="2"/>
<rect x="24" y="37" width="42" height="7" rx="3.5" stroke="black" stroke-width="2"/>
<path d="M62 67V80C62 81.6569 63.3431 83 65 83H71C72.6569 83 74 81.6569 74 80V67" stroke="black" stroke-width="2"/>
<path d="M74 65V67H62V65H74Z" stroke="black" stroke-width="2"/>
<path d="M71.5 65.2034V59.6102C72.5414 58.6173 74.1667 58.1356 74.1667 57.0678C74.1667 56 74.1667 53 74.1667 53H76.8333C76.8333 53 76.8333 55.6356 76.8333 57.0678C76.8333 58.5 79.5 59 79.5 59.6102C79.5 60.2203 79.5 83 79.5 83H71.5" stroke="black" stroke-width="2"/>
<rect x="80.5" y="75" width="7" height="8" stroke="black" stroke-width="2"/>
<path d="M80.5 78H87.5" stroke="black"/>
<path fill-rule="evenodd" clip-rule="evenodd" d="M28 38H62C63.6569 38 65 39.3431 65 41V68H67V41C67 38.2386 64.7614 36 62 36H28C25.2386 36 23 38.2386 23 41V79C23 81.7614 25.2386 84 28 84H62C63.6358 84 65.0882 83.2144 66.0004 82H65C64.489 82 64.0228 81.8084 63.6693 81.4931C63.1921 81.8132 62.6178 82 62 82H28C26.3431 82 25 80.6569 25 79V41C25 39.3431 26.3431 38 28 38Z" fill="black"/>
</svg>
